<?xml version="1.0" encoding="UTF-8" standalone="no"?>
<!-- Created with Inkscape (http://www.inkscape.org/) -->

<svg
   xmlns:dc="http://purl.org/dc/elements/1.1/"
   xmlns:cc="http://creativecommons.org/ns#"
   xmlns:rdf="http://www.w3.org/1999/02/22-rdf-syntax-ns#"
   xmlns:svg="http://www.w3.org/2000/svg"
   xmlns="http://www.w3.org/2000/svg"
   xmlns:xlink="http://www.w3.org/1999/xlink"
   xmlns:sodipodi="http://sodipodi.sourceforge.net/DTD/sodipodi-0.dtd"
   xmlns:inkscape="http://www.inkscape.org/namespaces/inkscape"
   width="210mm"
   height="297mm"
   id="svg2"
   version="1.1"
   inkscape:version="0.47 r22583"
   sodipodi:docname="c3.svg">
  <defs
     id="defs4">
    <inkscape:perspective
       sodipodi:type="inkscape:persp3d"
       inkscape:vp_x="0 : 526.18109 : 1"
       inkscape:vp_y="0 : 1000 : 0"
       inkscape:vp_z="744.09448 : 526.18109 : 1"
       inkscape:persp3d-origin="372.04724 : 350.78739 : 1"
       id="perspective10" />
    <inkscape:perspective
       id="perspective2824"
       inkscape:persp3d-origin="0.5 : 0.33333333 : 1"
       inkscape:vp_z="1 : 0.5 : 1"
       inkscape:vp_y="0 : 1000 : 0"
       inkscape:vp_x="0 : 0.5 : 1"
       sodipodi:type="inkscape:persp3d" />
    <linearGradient
       inkscape:collect="always"
       xlink:href="#linearGradient3165"
       id="linearGradient2470"
       x1="83.407349"
       y1="32.99041"
       x2="83.407349"
       y2="381.24533"
       gradientUnits="userSpaceOnUse" />
    <linearGradient
       id="linearGradient3165">
      <stop
         id="stop3001"
         offset="0"
         style="stop-color:#80c478;stop-opacity:1;" />
      <stop
         id="stop3002"
         offset="1"
         style="stop-color:#eeeeee;stop-opacity:1;" />
    </linearGradient>
    <inkscape:perspective
       id="perspective2861"
       inkscape:persp3d-origin="0.5 : 0.33333333 : 1"
       inkscape:vp_z="1 : 0.5 : 1"
       inkscape:vp_y="0 : 1000 : 0"
       inkscape:vp_x="0 : 0.5 : 1"
       sodipodi:type="inkscape:persp3d" />
    <inkscape:perspective
       id="perspective2843"
       inkscape:persp3d-origin="0.5 : 0.33333333 : 1"
       inkscape:vp_z="1 : 0.5 : 1"
       inkscape:vp_y="0 : 1000 : 0"
       inkscape:vp_x="0 : 0.5 : 1"
       sodipodi:type="inkscape:persp3d" />
    <linearGradient
       inkscape:collect="always"
       xlink:href="#linearGradient3165-7"
       id="linearGradient2470-1"
       x1="83.407349"
       y1="32.99041"
       x2="83.407349"
       y2="381.24533"
       gradientUnits="userSpaceOnUse" />
    <linearGradient
       id="linearGradient3165-7">
      <stop
         id="stop3001-4"
         offset="0"
         style="stop-color:#80c478;stop-opacity:1;" />
      <stop
         id="stop3002-0"
         offset="1"
         style="stop-color:#eeeeee;stop-opacity:1;" />
    </linearGradient>
    <linearGradient
       gradientTransform="translate(46.471853,335.31553)"
       y2="381.24533"
       x2="83.407349"
       y1="32.99041"
       x1="83.407349"
       gradientUnits="userSpaceOnUse"
       id="linearGradient2852"
       xlink:href="#linearGradient3165-7"
       inkscape:collect="always" />
    <inkscape:perspective
       id="perspective3680"
       inkscape:persp3d-origin="0.5 : 0.33333333 : 1"
       inkscape:vp_z="1 : 0.5 : 1"
       inkscape:vp_y="0 : 1000 : 0"
       inkscape:vp_x="0 : 0.5 : 1"
       sodipodi:type="inkscape:persp3d" />
    <inkscape:perspective
       id="perspective3710"
       inkscape:persp3d-origin="0.5 : 0.33333333 : 1"
       inkscape:vp_z="1 : 0.5 : 1"
       inkscape:vp_y="0 : 1000 : 0"
       inkscape:vp_x="0 : 0.5 : 1"
       sodipodi:type="inkscape:persp3d" />
    <inkscape:perspective
       id="perspective3710-4"
       inkscape:persp3d-origin="0.5 : 0.33333333 : 1"
       inkscape:vp_z="1 : 0.5 : 1"
       inkscape:vp_y="0 : 1000 : 0"
       inkscape:vp_x="0 : 0.5 : 1"
       sodipodi:type="inkscape:persp3d" />
  </defs>
  <sodipodi:namedview
     id="base"
     pagecolor="#ffffff"
     bordercolor="#666666"
     borderopacity="1.0"
     inkscape:pageopacity="0.0"
     inkscape:pageshadow="2"
     inkscape:zoom="1.2623223"
     inkscape:cx="284.97355"
     inkscape:cy="643.56344"
     inkscape:document-units="px"
     inkscape:current-layer="layer1"
     showgrid="false"
     showguides="true"
     inkscape:guide-bbox="true"
     inkscape:window-width="1680"
     inkscape:window-height="998"
     inkscape:window-x="-8"
     inkscape:window-y="-8"
     inkscape:window-maximized="1">
    <sodipodi:guide
       orientation="0,1"
       position="777.1391,166.36005"
       id="guide2824" />
  </sodipodi:namedview>
  <metadata
     id="metadata7">
    <rdf:RDF>
      <cc:Work
         rdf:about="">
        <dc:format>image/svg+xml</dc:format>
        <dc:type
           rdf:resource="http://purl.org/dc/dcmitype/StillImage" />
        <dc:title></dc:title>
      </cc:Work>
    </rdf:RDF>
  </metadata>
  <g
     inkscape:label="Ebene 1"
     inkscape:groupmode="layer"
     id="layer1">
    <g
       id="g3697">
      <path
         id="path2451-9"
         d="m 118.61187,726.68635 41.76528,-94.92107 C 133.98005,611.15385 86.971517,578.60948 87.694717,517.85999 87.305997,426.25007 212.15391,368.71557 309.53883,369.78312 c 129.45426,-0.1808 227.44896,67.43917 227.26816,147.53447 -0.1808,108.48123 -151.69291,178.99402 -306.45945,141.568 z"
         style="fill:url(#linearGradient2852);fill-opacity:1;stroke:#000000;stroke-width:14px;stroke-linejoin:round" />
      <path
         id="path2831"
         d="m 242.05221,377.13022 c -23.72097,2.6e-4 -45.3996,5.41145 -65.14649,16.23229 -19.74708,10.82133 -35.02694,26.61767 -45.72573,47.46489 -10.69886,20.84763 -16.01491,45.2624 -16.01489,73.26263 -2e-5,25.67734 4.7271,49.69118 14.20325,72.06694 9.47607,22.37592 23.29275,39.50633 41.45026,51.30559 18.15737,11.79932 41.6752,17.71781 70.65388,17.71781 28.00021,0 51.74451,-7.69885 71.12488,-23.04403 4.98518,-3.94729 9.57206,-8.35934 13.76846,-13.22495 3.40729,4.80675 7.37501,9.26998 11.92057,13.36988 15.58968,14.06135 35.17088,21.08746 58.76953,21.08746 26.16618,0 47.84704,-8.16996 64.96533,-24.49333 17.11797,-16.32333 25.68882,-36.23521 25.68902,-59.71159 -2e-4,-17.36258 -4.42151,-31.85199 -13.22496,-43.40683 -8.80378,-11.5546 -21.13462,-19.12209 -37.02987,-22.7904 12.22707,-5.62439 21.482,-13.21678 27.71806,-22.75417 6.23572,-9.53706 9.31163,-20.0876 9.31181,-31.70367 -1.8e-4,-12.22703 -3.27769,-23.75605 -9.81908,-34.6385 -6.54172,-10.88201 -15.98465,-19.53668 -28.334,-25.83395 -12.34966,-6.29679 -25.83567,-9.45649 -40.50823,-9.45675 -21.27546,2.6e-4 -39.10128,6.09546 -53.40708,18.2613 -5.88738,5.00689 -10.92495,10.87837 -15.07281,17.57287 -5.12055,-6.2883 -10.89626,-11.89862 -17.42797,-16.77574 -18.34104,-13.69426 -40.96417,-20.50749 -67.86394,-20.50775 z M 396.5849,405.7541 c 12.96075,2.4e-4 23.51129,4.00933 31.70366,11.9568 8.19211,7.94793 12.24655,17.9322 12.24667,30.03695 -1.2e-4,15.28427 -5.63553,26.61394 -16.88445,33.9501 -11.24918,7.3365 -23.87448,10.9787 -37.93571,10.97852 -1.34507,1.8e-4 -3.08917,-0.11769 -5.28997,-0.36232 l -3.65952,28.98619 c 9.29262,-2.44532 16.98921,-3.65938 23.2252,-3.6595 15.28392,1.2e-4 27.88657,4.94015 37.79075,14.78297 9.90394,9.84303 14.85527,22.33919 14.85544,37.5009 -1.7e-4,15.89548 -5.31616,29.20479 -16.01488,39.96472 -10.69895,10.75999 -23.82027,16.15983 -39.34876,16.15981 -13.08325,2e-5 -24.18868,-4.13818 -33.2979,-12.3916 -7.38023,-6.68669 -12.92311,-16.88664 -16.812,-30.43551 2.1669,-5.66399 4.07766,-11.58769 5.68853,-17.89899 l -35.58056,-9.02195 c -4.89111,22.62049 -14.22757,39.66709 -28.04415,51.16065 -13.81696,11.49365 -30.68691,17.28303 -50.61716,17.28301 -16.38462,2e-5 -31.62826,-4.24462 -45.68949,-12.68145 -14.06141,-8.43675 -24.42392,-21.24096 -31.08772,-38.29803 -6.66389,-17.05691 -10.00027,-36.95522 -10.00023,-59.82027 -4e-5,-17.72933 2.78142,-34.94131 8.406,-51.63168 5.62445,-16.68998 15.36183,-29.98797 29.23983,-39.89226 13.8778,-9.90383 31.22116,-14.85515 51.88531,-14.85543 17.97388,2.8e-4 32.85061,4.44425 44.71121,13.36988 11.86024,8.92612 20.90225,23.19129 27.13833,42.75466 l 35.0733,-8.26107 c -0.12362,-0.42492 -0.30801,-0.84647 -0.43478,-1.26815 l 0.0725,0 c 2.44539,-16.13974 7.96299,-28.23501 16.52213,-36.30521 8.55898,-8.06974 19.29977,-12.1015 32.13845,-12.10174 z"
         style="font-size:167.72148132000001000px;font-style:normal;font-weight:normal;fill:#c0dcbc;fill-opacity:1;stroke:none;font-family:Bitstream Vera Sans" />
      <path
         id="path2451"
         d="m 117.41365,726.83026 41.76528,-94.92107 C 132.78183,611.29776 85.7733,578.75339 86.49651,518.0039 86.10778,426.39397 210.95569,368.85948 308.34061,369.92703 c 129.4543,-0.1808 227.449,67.43917 227.2682,147.53447 -0.1808,108.48123 -151.6929,178.99402 -306.45949,141.568 z"
         style="fill:none;fill-opacity:1;stroke:#000000;stroke-width:14px;stroke-linejoin:round" />
    </g>
    <text
       xml:space="preserve"
       style="font-size:69.05802917px;font-style:normal;font-weight:normal;line-height:125%;fill:#000000;fill-opacity:1;stroke:none;font-family:Bitstream Vera Sans"
       x="153.35632"
       y="512.63208"
       id="text3668"
       sodipodi:linespacing="125%"><tspan
         sodipodi:role="line"
         id="tspan3670"
         x="153.35632"
         y="512.63208"
         style="font-size:69.05802917px;font-style:normal;font-variant:normal;font-weight:bold;font-stretch:normal;text-align:start;line-height:125%;writing-mode:lr-tb;text-anchor:start;font-family:Calibri;-inkscape-font-specification:Calibri Bold">Coma 3</tspan></text>
    <text
       xml:space="preserve"
       style="font-size:18.61385345px;font-style:normal;font-variant:normal;font-weight:normal;font-stretch:normal;text-align:start;line-height:125%;writing-mode:lr-tb;text-anchor:start;fill:#000000;fill-opacity:1;stroke:none;font-family:Calibri;-inkscape-font-specification:Calibri"
       x="156.95946"
       y="531.29712"
       id="text3668-4-8"
       sodipodi:linespacing="125%"><tspan
         sodipodi:role="line"
         x="156.95946"
         y="531.29712"
         style="font-size:18.61385345px;font-style:normal;font-variant:normal;font-weight:normal;font-stretch:normal;text-align:start;line-height:125%;writing-mode:lr-tb;text-anchor:start;font-family:Calibri;-inkscape-font-specification:Calibri"
         id="tspan3742">EXMARaLDA Corpus Manager, Release 0.572</tspan></text>
    <text
       xml:space="preserve"
       style="font-size:12px;font-style:normal;font-variant:normal;font-weight:normal;font-stretch:normal;text-align:start;line-height:89.99999762%;writing-mode:lr-tb;text-anchor:start;fill:#ffffff;fill-opacity:1;stroke:none;font-family:Calibri;-inkscape-font-specification:Calibri"
       x="157.23061"
       y="547.83636"
       id="text3668-4-5"
       sodipodi:linespacing="89.999998%"><tspan
         sodipodi:role="line"
         id="tspan3670-8-5"
         x="157.23061"
         y="547.83636"
         style="font-size:12px;font-style:normal;font-variant:normal;font-weight:normal;font-stretch:normal;text-align:start;line-height:89.99999762%;writing-mode:lr-tb;text-anchor:start;fill:#ffffff;fill-opacity:1;font-family:Calibri;-inkscape-font-specification:Calibri">Developed by Kai Wörner</tspan><tspan
         sodipodi:role="line"
         x="157.23061"
         y="558.63635"
         style="font-size:12px;font-style:normal;font-variant:normal;font-weight:normal;font-stretch:normal;text-align:start;line-height:89.99999762%;writing-mode:lr-tb;text-anchor:start;fill:#ffffff;fill-opacity:1;font-family:Calibri;-inkscape-font-specification:Calibri"
         id="tspan3746">(C) SFB 538 Mehrsprachigkeit</tspan><tspan
         sodipodi:role="line"
         x="157.23061"
         y="569.43634"
         style="font-size:12px;font-style:normal;font-variant:normal;font-weight:normal;font-stretch:normal;text-align:start;line-height:89.99999762%;writing-mode:lr-tb;text-anchor:start;fill:#ffffff;fill-opacity:1;font-family:Calibri;-inkscape-font-specification:Calibri"
         id="tspan3748">Licensed under a LGPL License</tspan></text>
  </g>
</svg>
