<?xml version="1.0" encoding="UTF-8" standalone="no"?>
<!-- Created with Inkscape (http://www.inkscape.org/) -->
<svg
   xmlns:dc="http://purl.org/dc/elements/1.1/"
   xmlns:cc="http://creativecommons.org/ns#"
   xmlns:rdf="http://www.w3.org/1999/02/22-rdf-syntax-ns#"
   xmlns:svg="http://www.w3.org/2000/svg"
   xmlns="http://www.w3.org/2000/svg"
   xmlns:xlink="http://www.w3.org/1999/xlink"
   xmlns:sodipodi="http://sodipodi.sourceforge.net/DTD/sodipodi-0.dtd"
   xmlns:inkscape="http://www.inkscape.org/namespaces/inkscape"
   width="210mm"
   height="297mm"
   id="svg2"
   sodipodi:version="0.32"
   inkscape:version="0.46"
   sodipodi:docname="sbcsae-surfer-logo.svg"
   inkscape:output_extension="org.inkscape.output.svg.inkscape">
  <defs
     id="defs4">
    <pattern
       inkscape:collect="always"
       xlink:href="#pattern5610"
       id="pattern5623"
       patternTransform="matrix(1.3947034,0,0,1.3947034,715.04347,383.02616)" />
    <pattern
       inkscape:collect="always"
       xlink:href="#pattern5564"
       id="pattern5596"
       patternTransform="matrix(0.5070731,0,0,0.5070731,1386.4781,-280.0797)" />
    <pattern
       inkscape:collect="always"
       xlink:href="#pattern5423"
       id="pattern5577"
       patternTransform="matrix(0.836229,0,0,0.836229,2122.538,160.62585)" />
    <pattern
       inkscape:collect="always"
       xlink:href="#pattern3481"
       id="pattern5573"
       patternTransform="matrix(1.2205176,0,0,1.2205176,868.13941,535.72819)" />
    <pattern
       inkscape:collect="always"
       xlink:href="#pattern5423"
       id="pattern5430"
       patternTransform="matrix(0.5953166,0,0,0.5953166,2398.3464,66.270332)" />
    <pattern
       inkscape:collect="always"
       xlink:href="#pattern3481"
       id="pattern4209"
       patternTransform="translate(-2.7226562e-5,-1.6601563e-6)" />
    <inkscape:perspective
       sodipodi:type="inkscape:persp3d"
       inkscape:vp_x="0 : 526.18109 : 1"
       inkscape:vp_y="0 : 1000 : 0"
       inkscape:vp_z="744.09448 : 526.18109 : 1"
       inkscape:persp3d-origin="372.04724 : 350.78739 : 1"
       id="perspective10" />
    <inkscape:perspective
       id="perspective2447"
       inkscape:persp3d-origin="372.04724 : 350.78739 : 1"
       inkscape:vp_z="744.09448 : 526.18109 : 1"
       inkscape:vp_y="0 : 1000 : 0"
       inkscape:vp_x="0 : 526.18109 : 1"
       sodipodi:type="inkscape:persp3d" />
    <inkscape:perspective
       id="perspective3316"
       inkscape:persp3d-origin="225.959 : 54.605998 : 1"
       inkscape:vp_z="451.918 : 81.908997 : 1"
       inkscape:vp_y="0 : 1000 : 0"
       inkscape:vp_x="0 : 81.908997 : 1"
       sodipodi:type="inkscape:persp3d" />
    <pattern
       patternUnits="userSpaceOnUse"
       width="451.91763"
       height="163.81792"
       patternTransform="translate(582.21738,756.1817)"
       id="pattern3481">
      <g
         transform="translate(0,-8.1660156e-5)"
         id="g3319"
         style="overflow:visible">
        <path
           style="fill:#ffffff;fill-rule:evenodd"
           clip-rule="evenodd"
           d="M 0.438,77.974 L 0.438,163.818 L 335.434,161.723 L 300.889,138.344 C 300.889,138.344 288.673,110.077 290.07,104.844 C 291.467,99.61 303.33,83.557 319.731,82.161 C 336.134,80.766 337.529,77.973 337.529,77.973 C 337.529,77.973 342.063,76.229 344.159,78.323 C 346.254,80.416 343.11,84.604 344.856,84.604 C 346.603,84.604 353.581,85.651 353.581,85.651 C 353.581,85.651 346.95,91.584 349.044,91.932 C 351.139,92.281 358.815,92.977 363.352,91.581 C 367.889,90.186 368.24,97.513 371.378,96.118 C 374.518,94.722 376.262,88.442 379.055,88.442 C 381.847,88.442 385.336,89.139 385.336,89.139 L 390.221,87.395 L 390.918,94.025 L 399.643,95.071 L 395.455,101.701 L 405.575,104.144 L 411.157,107.983 L 418.487,104.144 L 429.303,105.54 L 428.606,95.769 C 428.606,95.769 433.489,91.234 435.236,92.629 C 436.982,94.025 440.819,95.769 440.819,95.769 L 442.216,90.535 L 428.954,84.603 L 428.257,78.67 L 434.189,74.134 L 444.308,73.785 L 448.496,77.623 L 450.59,74.134 C 450.59,74.134 447.798,69.597 446.402,69.597 C 445.006,69.597 439.074,65.06 439.074,65.06 L 428.258,59.477 L 428.258,52.848 L 416.742,50.405 L 403.481,47.613 C 403.481,47.613 394.408,45.52 393.012,46.567 C 391.617,47.613 379.404,49.009 379.404,49.009 C 379.404,49.009 372.773,47.961 372.773,46.915 C 372.773,45.869 369.983,42.031 372.076,40.634 C 374.17,39.238 375.914,38.54 375.914,38.54 L 381.015,40.421 L 381.847,38.192 L 374.17,34.353 L 369.633,29.468 L 376.962,28.072 L 376.265,25.281 L 364.747,21.442 C 364.747,21.442 350.791,13.764 331.248,9.577 C 311.706,5.39 312.753,4.692 312.753,4.692 C 312.753,4.692 306.471,2.249 294.956,1.9 C 283.441,1.551 274.018,1.203 274.018,1.203 L 251.337,4.344 C 251.337,4.344 217.837,6.09 197.946,12.719 C 178.055,19.348 138.624,35.401 138.624,35.401 L 123.619,44.124 C 123.619,44.124 112.801,46.567 108.963,49.358 C 105.125,52.15 82.442,66.806 82.442,66.806 L 56.619,77.974 L 24.516,81.116 L 0.438,77.974 z"
           id="path3305" />
        <g
           id="g3307">
	<path
   style="fill:#007cc2;fill-rule:evenodd"
   clip-rule="evenodd"
   d="M 0,76.47 C 3.788,77.931 8.407,76.425 12.337,76.906 C 15.906,77.342 18.902,79.53 22.496,79.946 C 32.839,81.14 43.122,79.644 53.202,77.351 C 70.125,73.5 89.676,63.062 102.467,51.276 C 108.494,45.722 119.649,41.932 127.729,40.423 C 134.63,34.991 143.271,32.08 151.284,28.75 C 169.053,21.363 187.433,14.63 206.029,9.249 C 222.612,4.451 238.154,2.536 255.259,2.603 C 264.009,2.638 272.612,-0.374 282.058,0.039 C 292.553,0.498 305.293,0.268 315.086,4.002 C 322.348,6.772 330.223,7.455 337.688,9.498 C 343.433,11.07 351.152,12.523 355.941,15.277 C 362.172,18.862 369.644,19.486 375.901,23.021 C 388.035,29.872 371.903,28.724 371.579,30.434 C 374.308,34.733 381.143,34.001 384.343,37.819 C 390.386,45.028 374.45,40.19 375.207,39.99 C 371.905,40.299 373.606,43.969 374.583,45.418 C 377.23,49.35 384.571,46.801 388.272,45.816 C 397.53,43.352 404.968,48.518 414.158,49.219 C 418.065,49.517 422.181,49.316 426.026,50.215 C 433.373,51.934 426.807,55.679 430.362,59.534 C 433.915,60.958 439.508,61.384 441.916,64.782 C 444.158,67.946 446.466,67.22 449.405,70.307 C 453.285,74.387 452.99,81.272 446.268,81.551 C 438.479,81.875 445.368,76.971 440.525,74.735 C 436.508,74.298 431.219,74.818 429.81,79.384 C 427.133,88.055 442.307,83.819 444.151,91.675 C 446.989,103.752 429.32,89.636 428.911,97.755 C 435.552,100.007 433.428,106.642 427.65,108.218 C 424.58,109.055 421.514,108.006 419.476,105.571 C 416.727,107.747 412.883,108.49 409.476,108.537 C 405.657,108.587 403.915,108.768 403.34,105.336 C 402.949,103.006 395.521,104.397 393.406,103.518 C 385.535,100.254 398.572,98.268 398.429,96.017 C 395.023,95.625 383.57,95.906 388.995,89.503 C 385.294,89.892 381.855,92.115 378.109,90.371 C 378.66,94.768 374.591,96.532 371.006,97.241 C 364.191,98.588 365.9,91.453 360.951,92.876 C 356.336,94.202 351.522,96.375 346.964,93.138 C 338.889,87.408 351.679,89.9 350.528,86.029 C 347.449,86.278 344.473,85.927 341.998,83.968 C 338.699,81.357 343.141,79.941 341.82,79.079 C 336.415,79.592 331.587,82.293 326.241,83.035 C 319.433,83.979 317.334,81.926 310.991,85.918 C 306.461,88.77 303.442,92.182 304.031,97.811 C 304.76,104.751 297.953,107.79 298.472,114.637 C 299.986,134.682 326.381,157.918 343.996,163.336 C 252.794,163.336 161.593,163.336 70.392,163.336 C 72.88,162.389 70.523,158.87 73.295,158.127 C 72.315,157.13 71.105,156.838 69.665,157.256 C 74.168,155.252 78.998,165.103 79.1,156.388 C 82.533,155.088 84.953,155.958 86.359,158.994 C 92.666,153.538 69.397,154.556 67.855,154.724 C 63.24,155.231 57.983,154.839 53.699,152.913 C 53.338,146.352 64.796,145.618 63.136,150.307 C 72.019,147.156 51.892,140.331 53.699,146.834 C 52.616,134.035 33.574,144.429 28.3,145.095 C 23.072,145.751 18.716,144.37 13.785,142.922 C 14.568,135.768 8.131,140.245 7.979,139.015 C 9.177,136.928 13.642,138.782 14.511,136.409 C 13.054,134.419 8.668,132.942 6.526,134.67 C 6.561,134.808 15.826,130.798 14.511,138.582 C 21.073,141.78 17.16,132.059 17.414,131.197 C 25.071,128.923 26.368,132.059 27.573,137.276 C 32.784,138.232 30.861,133.149 31.927,130.328 C 38.534,129.76 35.796,132.995 38.995,127.173 C 40.844,123.811 50.885,127.024 47.894,131.197 C 54.952,127.604 41.529,125.876 42.088,122.076 C 42.9,122.582 43.383,123.307 43.539,124.249 C 46.273,124.231 43.781,121.176 47.168,121.643 C 42.96,127.387 59.981,130.202 55.876,135.976 C 59.494,135.627 59.086,132.333 57.328,130.329 C 59.081,128.461 66.99,127.951 68.214,130.765 C 68.989,132.39 65.489,131.447 66.037,132.936 C 69.063,136.576 69.869,129.483 71.843,129.026 C 70.936,127.891 69.727,127.458 68.214,127.723 C 69.746,127.078 71.197,127.224 72.568,128.159 C 71.663,129.62 71.179,131.216 71.117,132.936 C 74.173,132.905 75.985,130.627 78.097,133.676 C 80.411,137.014 80.689,140.292 75.473,140.318 C 75.876,145.347 82.519,138.955 83.456,138.584 C 80.251,134.392 79.458,128.289 85.632,127.724 C 85.743,128.827 85.502,129.84 84.907,130.766 C 88.834,131.913 89.774,125.541 94.928,126.505 C 100.66,127.576 96.929,130.488 99.42,132.069 C 102.658,131.854 103.685,128.813 101.529,126.73 C 98.225,123.537 92.672,122.959 88.35,122.649 C 82.048,122.194 81.642,123.484 79.826,117.298 C 78.706,116.564 71.152,115.605 73.294,112.957 C 76.633,112.195 78.575,113.573 81.277,115.13 C 84.093,112.917 78.187,112.174 80.55,109.918 C 76.251,111.266 71.77,109.257 67.488,110.352 C 72.233,109.014 82.178,105.634 81.277,101.665 C 82.917,102.261 84.61,102.55 86.357,102.532 C 85.449,103.002 84.482,103.148 83.455,102.97 C 82.167,107.038 87.943,106.624 89.985,106.444 C 86.171,107.483 93.158,110.663 96.517,109.05 C 99.057,114.846 93.475,111.779 90.711,112.957 C 95.981,120.167 104.931,106.679 111.032,112.089 C 111.807,114.66 107.513,113.597 106.678,113.391 C 107.484,116.101 115.209,114.534 114.659,112.089 C 119.093,117.053 113.911,120.404 108.854,119.471 C 108.932,122.094 115.064,121.332 116.47,121.367 C 124.139,121.552 119.922,128.112 114.659,126.856 C 113.55,131.145 127.856,122.913 127.723,122.945 C 124.343,128.638 113.593,137.782 106.677,133.803 C 107.484,137.142 114.837,136.022 116.837,135.108 C 114.064,139.217 121.867,140.16 113.92,141.944 C 111.759,142.429 106.304,143.006 106.084,142.022 C 107.007,146.153 119.534,144.738 122.643,144.663 C 127.162,149.528 116.1,151.457 113.21,149.875 C 109.892,152.53 121.415,152.158 120.763,152.296 C 124.712,151.47 127.636,148.693 129.902,145.53 C 127.842,144.884 126.391,143.582 125.548,141.623 C 127.406,140.612 129.342,140.468 131.354,141.188 C 132.236,143.153 129.349,142.845 129.903,144.663 C 134.943,144.677 137.169,138.152 130.627,138.148 C 134.896,136.32 152.001,135.824 145.143,143.792 C 148.347,144.415 155.023,138.017 150.224,136.844 C 151.105,136.199 168.709,131.113 163.288,128.592 C 167.414,127.158 166.183,132.632 163.288,132.936 C 169.644,137.706 163.698,135.338 164.012,139.451 C 167.829,140.167 169.902,136.56 171.995,134.238 C 169.853,138.558 173.092,142.014 166.916,143.793 C 171.338,145.546 174.36,139.667 178.033,144.524 C 180.354,147.593 175.97,150.929 172.721,151.176 C 179.162,155.095 181.923,145.933 187.961,145.964 C 191.463,145.983 193.687,147.851 195.308,150.755 C 198.41,156.311 194.301,151.767 193.766,155.955 C 199.373,158.456 200.263,150.725 197.404,147.697 C 195.822,146.386 194.61,144.794 193.766,142.924 C 192.275,143.264 190.77,143.483 189.25,143.58 C 190.484,144.184 194.778,140.077 194.493,138.583 C 198.274,138.429 208.764,140.034 204.652,146.398 C 209.062,145.768 209.437,140.255 206.019,138.433 C 196.419,133.319 210.32,133.702 206.83,137.714 C 212.601,137.96 206.48,132.87 211.614,131.886 C 213.88,131.504 216.122,131.613 218.34,132.214 C 222.618,133.465 218.562,136.7 221.345,137.714 C 225.794,135.237 221.463,131.825 219.017,130.486 C 213.617,127.533 207.107,130.543 201.749,132.501 C 206.691,131.833 208.783,126.344 201.749,126.422 C 208.781,125.554 205.824,120.776 201.022,119.47 C 195.483,119.153 193.071,123.605 187.33,122.799 C 183.636,122.282 173.573,120.735 172.308,117.343 C 171.226,114.447 172.14,111.558 171.993,108.612 C 173.361,109.04 178.086,106.713 177.937,107.717 C 177.565,108.448 177.035,109.037 176.348,109.482 C 176.26,109.496 182.252,110.083 181.518,109.129 C 180.359,108.814 180.087,108.353 180.702,107.743 C 183.779,106.999 181.583,108.792 183.606,109.049 C 184.04,110.797 180.567,110.243 179.977,111.218 C 181.084,113.681 186.116,112.459 185.783,109.917 C 187.525,112.56 193.112,115.996 185.058,115.996 C 188.742,118.273 190.673,116.63 193.256,113.987 C 196.841,110.313 205.821,112.457 201.023,115.562 C 215.271,115.495 197.633,105.046 211.909,105.137 C 210.782,107.026 204.436,105.872 206.103,109.481 C 211.279,107.745 215.576,110.056 220.618,110.784 C 221.519,114.679 216.107,117.238 216.264,117.734 C 221.872,119.562 228.393,110.269 232.955,115.129 C 231.613,114.359 230.163,114.067 228.601,114.257 C 229.528,115.359 230.738,115.792 232.231,115.563 C 234.042,119.466 231.025,121.11 228.601,123.382 C 233.489,124.874 235.832,121.028 240.214,120.341 C 247.693,121.131 241.502,126.198 240.939,127.722 C 249.048,129.544 246.055,120.492 253.699,121.101 C 263.018,121.842 257.355,123.916 259.808,127.722 C 272.168,128.176 257.149,117.455 251.825,116.864 C 251.028,114.873 254.3,115.559 254.003,113.824 C 252.812,113.541 248.27,115.265 247.471,114.695 C 248.522,109.434 256.716,115.557 257.631,117.298 C 262.084,118.015 260.576,113.181 256.905,112.525 C 257.063,110.479 282.665,107.604 275.048,116.431 C 285.367,115.14 275.902,107.85 271.421,106.444 C 276.079,108.522 282.293,98.314 286.661,107.311 C 291.386,103.085 273.766,100.781 270.987,102.057 C 266.479,104.126 262.111,99.926 256.905,100.797 C 254.986,101.842 253.051,102.856 251.1,103.837 C 248.687,103.361 246.269,102.927 243.841,102.532 C 248.231,102.282 248.443,97.083 243.841,96.886 C 248.146,94.556 257.282,92.76 260.534,97.757 C 261.749,90.238 243.524,93.455 240.214,94.283 C 239.775,89.352 244.327,92.518 246.743,92.545 C 245.665,86.453 226.232,95.579 221.18,94.675 C 219.378,94.352 214.167,93.443 213.917,90.885 C 213.76,89.279 216.476,88.435 217.446,88.122 C 223.22,86.268 219.773,88.768 222.796,91.239 C 230.288,89.905 223.654,83.689 219.167,83.857 C 217.736,77.15 227.168,81.242 230.054,82.12 C 229.649,82.79 229.407,83.514 229.326,84.293 C 237.77,82.516 224.505,78.175 221.578,78.286 C 219.819,78.352 205.798,81.932 207.555,77.343 C 209.491,77.343 211.426,77.343 213.362,77.343 C 210.824,73.84 200.135,74.346 197.395,77.343 C 190.301,78.044 183.159,75.928 178.348,70.935 C 175.775,68.266 167.616,60.797 171.721,56.767 C 175.512,53.043 188.506,54.175 180.703,60.405 C 187.429,62.647 190.351,55.084 185.058,51.284 C 186.702,51.794 187.911,52.807 188.685,54.325 C 190.684,52.825 192.919,52.33 195.389,52.841 C 204.178,54.152 198.637,56.488 198.847,60.405 C 203.118,62.183 205.876,58.149 203.883,54.786 C 200.354,48.831 207.759,51.233 210.458,49.981 C 208.959,47.629 204.791,48.891 202.813,49.375 C 199.542,50.177 195.498,46.906 191.59,46.074 C 194.58,45.241 211.404,48.033 211.909,51.285 C 219.021,47.515 198.177,45.657 198.12,45.639 C 199.807,45.271 201.5,45.271 203.201,45.639 C 202.721,44.23 202.479,42.783 202.476,41.296 C 205.198,41.688 202.984,42.898 203.201,44.338 C 206.938,43.54 224.127,51.568 222.071,56.932 C 229.539,57.597 219.248,47.43 218.442,46.075 C 224.986,42.608 227.844,47.214 230.781,49.983 C 237.407,44.388 213.692,42.208 212.636,40.863 C 227.77,45.299 210.064,39.929 219.996,37.879 C 223.448,37.166 240.497,36.268 235.86,44.338 C 245.047,44.344 235.522,37.526 235.133,35.216 C 236.072,37.088 240.818,41.252 242.233,40.332 C 246.645,37.465 252.645,45.832 247.472,49.116 C 252.065,50.014 255.14,44.81 256.638,42.941 C 255.586,43.356 255.194,44.11 255.455,45.207 C 258.068,44.532 271.923,46.847 266.342,52.156 C 269.278,53.307 270.419,50.471 270.696,48.246 C 267.864,44.2 262.801,42.584 259.81,38.692 C 260.383,37.548 261.351,37.114 262.712,37.389 C 263.269,33.77 255.378,35.799 256.423,34.863 C 257.65,33.76 261.498,34.361 262.712,35.217 C 263.273,31.065 254.122,31.667 251.826,30.874 C 254.112,30.609 266.937,31.638 262.712,36.52 C 268.775,36.651 265.013,29.745 261.261,29.137 C 266.986,27.991 266.502,33.308 266.342,35.652 C 268.478,36.292 270.654,36.728 272.873,36.956 C 273.357,38.403 273.841,39.851 274.325,41.298 C 278.881,40.186 276.399,36.491 275.049,33.915 C 279.516,31.228 287.537,32.227 286.662,37.391 C 289.687,37.95 288.375,35.417 291.016,35.653 C 289.245,37.626 294.528,38.119 293.919,40.431 C 292.685,40.621 291.476,40.91 290.289,41.299 C 292.018,42.529 307.441,33.029 306.258,42.602 C 302.342,36.746 294.337,41.074 296.796,42.4 C 302.743,45.608 290.705,46.016 289.566,46.077 C 287.476,47.171 296.838,48.923 298.986,48.094 C 301.838,46.994 304.763,47.295 306.978,49.555 C 310.109,52.752 306.585,52.235 304.805,54.328 C 309.227,56.688 310.267,51.321 313.516,49.984 C 312.854,56.718 301.629,57.445 296.822,57.369 C 299.75,62.82 323.751,52.156 315.691,61.711 C 316.985,63.699 320.354,61.15 322.223,62.147 C 326.785,66.354 320.85,65.972 319.321,68.227 C 324.794,70.07 328.489,63.266 333.835,68.227 C 331.804,68.25 329.867,67.815 328.029,66.924 C 334.027,72.565 315.61,74.037 315.691,74.741 C 319.299,76.692 332.312,73.354 330.207,79.084 C 328.752,78.844 327.302,78.844 325.853,79.084 C 324.639,84.38 340.181,78.075 335.288,73.873 C 335.342,73.78 345.076,76.162 347.107,76.571 C 357.994,78.766 346.56,81.289 345.448,82.993 C 347.921,85.519 353.361,83.533 354.883,80.821 C 353.225,82.981 362.303,91.898 351.254,90.81 C 354.9,93.23 359.316,90.627 362.874,89.508 C 369.649,87.379 369.517,90.441 369.398,94.721 C 379.96,94.389 369.228,86.942 371.431,83.813 C 376.343,76.835 389.144,87.016 383.187,88.204 C 387.188,91.15 390.024,82.025 390.245,82.334 C 390.475,83.22 390.301,84.019 389.719,84.731 C 393.78,85.064 399.406,90.694 392.622,92.549 C 396.411,94.829 399.926,89.219 404.234,89.943 C 403.312,90.555 399.195,90.014 399.154,91.681 C 401.44,93.922 403.59,90.362 404.226,94.837 C 404.866,99.324 400.831,101.077 396.974,100.801 C 397.449,102.529 419.197,99.075 409.312,106.447 C 411.145,106.545 419.607,103.286 415.119,101.669 C 415.66,101.884 430.844,102.818 426.006,105.576 C 434.091,100.247 407.985,95.521 416.156,93.144 C 420.197,91.969 426.791,95.772 427.437,93.622 C 428.889,88.791 439.804,89.824 439.068,94.721 C 445.07,90.364 423.159,85.338 419.473,86.468 C 423.434,85.823 425.794,83.449 425.382,79.389 C 424.677,72.475 421.011,77.68 417.98,73.932 C 417.158,72.914 426.589,74.644 425.73,75.514 C 424.849,75.803 424.457,76.413 424.555,77.347 C 425.946,77.253 433.565,73.291 428.908,71.701 C 434.111,74.465 446.52,67.067 447.778,76.478 C 455.161,68.415 428.348,70.768 429.635,65.622 C 432.367,65.256 435.029,65.546 437.616,66.491 C 438.882,59.506 414.986,64.542 412.217,64.319 C 411.625,62.545 401.977,57.826 410,57.782 C 413.512,57.763 417.465,63.066 418.022,56.501 C 417.078,56.037 416.112,56.037 415.118,56.501 C 417.297,54.513 427.691,54.437 428.014,55.468 C 426.704,51.266 417.323,50.68 413.446,50.543 C 407.16,50.32 400.447,49.158 394.075,46.945 C 384.04,50.894 373.612,47.456 364.319,47.381 C 369.087,44.903 373.953,30.515 381.009,40.432 C 379.947,32.255 360.344,33.621 354.882,33.483 C 353.506,31.056 357.943,31.738 357.705,31.883 C 356.634,31.954 356.176,32.487 356.333,33.483 C 358.219,33.769 359.835,33.289 361.185,32.044 C 363.52,29.403 364.122,32.09 367.947,31.746 C 368.698,30.187 365.198,28.849 365.483,27.145 C 366.153,23.151 373.547,26.966 375.204,27.836 C 377.935,23.259 356.922,19.897 354.883,20.019 C 349.161,16.067 342.803,12.953 336.143,10.939 C 331.426,9.512 326.529,8.654 321.596,8.552 C 314.566,8.406 315.983,4.54 309.528,4.38 C 301.327,4.178 293.382,2.405 285.217,1.579 C 274.645,0.511 266.95,3.735 256.908,4.817 C 237.527,6.904 220.444,6.554 201.538,12.943 C 184.607,18.665 167.377,23.982 150.903,30.944 C 143.492,34.076 136.771,38.064 129.716,41.864 C 121.769,46.143 112.621,47.681 105.229,53.025 C 75.389,74.595 37.677,96.251 0,97.753 C 0,91.107 18.348,93.979 24.675,91.235 C 19.835,91.347 14.997,91.564 10.156,91.669 C 1.306,91.862 0,93.258 0,84.29 C 9.393,87.005 20.578,85.235 30.113,84.325 C 37.717,83.599 52.026,84.698 58.059,79.077 C 50.9,81.153 0,86.292 0,76.47"
   id="path3309" />

</g>
      </g>
    </pattern>
    <pattern
       patternUnits="userSpaceOnUse"
       width="451.91763"
       height="163.81792"
       patternTransform="translate(582.21741,756.1817)"
       id="pattern4206">
      <rect
         id="rect3487"
         y="0"
         x="0"
         height="163.81792"
         width="451.91763"
         style="fill:url(#pattern4209);stroke:none" />
    </pattern>
    <inkscape:perspective
       id="perspective2458"
       inkscape:persp3d-origin="262.5 : 141.66667 : 1"
       inkscape:vp_z="525 : 212.5 : 1"
       inkscape:vp_y="0 : 1000 : 0"
       inkscape:vp_x="0 : 212.5 : 1"
       sodipodi:type="inkscape:persp3d" />
    <linearGradient
       id="linearGradient3165">
      <stop
         style="stop-color:#80c478;stop-opacity:1;"
         offset="0"
         id="stop3001" />
      <stop
         style="stop-color:#eeeeee;stop-opacity:1;"
         offset="1"
         id="stop3002" />
    </linearGradient>
    <inkscape:perspective
       id="perspective5280"
       inkscape:persp3d-origin="372.04724 : 350.78739 : 1"
       inkscape:vp_z="744.09448 : 526.18109 : 1"
       inkscape:vp_y="0 : 1000 : 0"
       inkscape:vp_x="0 : 526.18109 : 1"
       sodipodi:type="inkscape:persp3d" />
    <inkscape:perspective
       id="perspective5360"
       inkscape:persp3d-origin="372.04724 : 350.78739 : 1"
       inkscape:vp_z="744.09448 : 526.18109 : 1"
       inkscape:vp_y="0 : 1000 : 0"
       inkscape:vp_x="0 : 526.18109 : 1"
       sodipodi:type="inkscape:persp3d" />
    <pattern
       patternUnits="userSpaceOnUse"
       width="2516"
       height="2007"
       patternTransform="translate(-58.662479,-1079.3511)"
       id="pattern5366">
      <image
         xlink:href="/Users/woerner/Desktop/2635957634_5f7c544142_o.jpg"
         sodipodi:absref="/Users/woerner/Desktop/2635957634_5f7c544142_o.jpg"
         width="2516"
         height="2007"
         id="image5362"
         x="0"
         y="0" />
    </pattern>
    <inkscape:perspective
       id="perspective5417"
       inkscape:persp3d-origin="372.04724 : 350.78739 : 1"
       inkscape:vp_z="744.09448 : 526.18109 : 1"
       inkscape:vp_y="0 : 1000 : 0"
       inkscape:vp_x="0 : 526.18109 : 1"
       sodipodi:type="inkscape:persp3d" />
    <pattern
       patternUnits="userSpaceOnUse"
       width="800"
       height="638"
       patternTransform="translate(2398.3464,66.270332)"
       id="pattern5423">
      <image
         xlink:href="/Users/woerner/Desktop/2635957634_5f7c544142_o.jpg"
         sodipodi:absref="/Users/woerner/Desktop/2635957634_5f7c544142_o.jpg"
         width="800"
         height="638"
         id="image5419"
         x="0"
         y="0" />
    </pattern>
    <inkscape:perspective
       id="perspective5558"
       inkscape:persp3d-origin="372.04724 : 350.78739 : 1"
       inkscape:vp_z="744.09448 : 526.18109 : 1"
       inkscape:vp_y="0 : 1000 : 0"
       inkscape:vp_x="0 : 526.18109 : 1"
       sodipodi:type="inkscape:persp3d" />
    <pattern
       patternUnits="userSpaceOnUse"
       width="1280"
       height="661"
       patternTransform="translate(1511.6806,-307.29764)"
       id="pattern5564">
      <image
         xlink:href="/Users/woerner/Desktop/1374906530_bc95236386_o.jpg"
         sodipodi:absref="/Users/woerner/Desktop/1374906530_bc95236386_o.jpg"
         width="1280"
         height="661"
         id="image5560"
         x="0"
         y="0" />
    </pattern>
    <pattern
       patternUnits="userSpaceOnUse"
       width="462.01083"
       height="267.01903"
       patternTransform="translate(968.04829,266.14894)"
       id="pattern5610">
      <g
         id="g5606"
         transform="translate(-858.0462,-432.5271)">
        <rect
           style="opacity:1;fill:#ffffff;fill-opacity:0.67259791;stroke:none;stroke-width:2.5;stroke-linecap:square;stroke-linejoin:miter;stroke-miterlimit:2.4000001;stroke-dasharray:5, 5;stroke-dashoffset:0;stroke-opacity:1"
           id="rect5604"
           width="461.83789"
           height="266.40753"
           x="858.0462"
           y="432.5271" />
        <rect
           style="fill:url(#pattern5573);fill-opacity:1;stroke:none"
           width="451.91763"
           height="163.81792"
           x="868.1394"
           y="535.72821"
           id="rect4211" />
      </g>
    </pattern>
  </defs>
  <sodipodi:namedview
     id="base"
     pagecolor="#ffffff"
     bordercolor="#666666"
     borderopacity="1.0"
     inkscape:pageopacity="0.0"
     inkscape:pageshadow="2"
     inkscape:zoom="0.7272589"
     inkscape:cx="1356.5519"
     inkscape:cy="838.94358"
     inkscape:document-units="px"
     inkscape:current-layer="layer1"
     showgrid="false"
     inkscape:window-width="1680"
     inkscape:window-height="940"
     inkscape:window-x="0"
     inkscape:window-y="0" />
  <metadata
     id="metadata7">
    <rdf:RDF>
      <cc:Work
         rdf:about="">
        <dc:format>image/svg+xml</dc:format>
        <dc:type
           rdf:resource="http://purl.org/dc/dcmitype/StillImage" />
      </cc:Work>
    </rdf:RDF>
  </metadata>
  <g
     inkscape:label="Ebene 1"
     inkscape:groupmode="layer"
     id="layer1">
    <rect
       style="fill:url(#pattern5610);stroke:none"
       width="462.01083"
       height="267.01904"
       x="968.04828"
       y="266.14893"
       id="rect5615" />
    <rect
       style="fill:url(#pattern5430);stroke:none"
       width="800"
       height="638"
       x="2398.3464"
       y="66.270332"
       id="rect5426" />
    <g
       id="g5625"
       inkscape:export-filename="/Volumes/NW1000_SFB538B/Daten/TP-Z2/Grafik/Logos und Icons/EXMARaLDA-Software/SBCSAE-Surfer/var3.png"
       inkscape:export-xdpi="99.498894"
       inkscape:export-ydpi="99.498894">
      <path
         style="fill:url(#pattern5623);fill-opacity:1;stroke:#000000;stroke-width:14px;stroke-linejoin:round"
         d="M 948.46488,72.709688 L 990.23018,-22.211382 C 963.83308,-42.822812 916.82458,-75.367178 917.54778,-136.11666 C 917.15898,-227.72658 1042.007,-285.26108 1139.3919,-284.19353 C 1268.8461,-284.37433 1366.8408,-216.75436 1366.66,-136.65906 C 1366.4792,-28.177842 1214.9671,42.334948 1060.2006,4.908928 L 948.46488,72.709688 z"
         id="path2451" />
      <g
         transform="matrix(0.6372553,0,0,0.6372553,460.70383,-273.25348)"
         id="g3246">
        <path
           id="path2467"
           d="M 1007.4966,441.70913 C 1006.009,437.81382 1005.9408,435.79427 1006.8411,422.28644 C 1007.3938,413.995 1007.7641,395.97398 1007.6641,382.23974 C 1007.5641,368.5055 1007.3831,341.49322 1007.2619,322.21246 C 1007.1406,302.9317 1006.784,284.32763 1006.4693,280.87008 L 1005.8973,274.58363 L 1002.1904,273.4267 C 1000.1516,272.79038 998.10869,272.26976 997.65075,272.26976 C 996.1759,272.26976 976.96006,261.53763 973.34364,258.69411 C 971.41873,257.18064 969.47385,255.92435 969.02167,255.90236 C 967.42466,255.8247 961.26432,249.64453 958.53054,245.37754 C 953.13221,236.95145 945.46533,229.05257 939.38471,225.65207 C 934.24148,222.77583 932.5441,222.32141 926.80828,222.28523 C 923.16141,222.26223 918.44874,221.87396 916.33578,221.42241 C 914.22281,220.97087 908.82036,219.88022 904.33032,218.99875 C 899.84028,218.11729 894.16371,216.77678 891.71575,216.01984 C 889.26779,215.26289 886.54928,214.64357 885.6747,214.64357 C 881.14212,214.64357 872.41002,207.62643 869.53995,201.67768 C 867.33546,197.10844 865.67467,187.88131 866.38001,184.12149 C 868.19726,174.43499 878.49016,160.80841 886.52594,157.45087 C 888.33242,156.69606 894.02311,155.40062 899.17191,154.57209 C 904.32071,153.74357 908.79337,152.90503 909.11108,152.70867 C 909.78204,152.29397 926.16728,153.76304 934.58407,154.99255 C 937.75351,155.45553 946.73618,157.19757 954.5454,158.86374 C 962.35461,160.52991 969.07133,161.69084 969.47145,161.44358 C 969.87147,161.19632 970.30808,159.34293 970.44158,157.32493 C 970.88703,150.5929 972.55166,140.37083 973.37303,139.32354 C 973.81934,138.75448 974.41798,137.20837 974.70342,135.88777 C 977.0878,124.85435 984.22874,113.02983 992.54238,106.34884 C 1002.602,98.26472 1015.118,95.477667 1026.5014,98.78691 C 1029.4617,99.6475 1032.6277,100.35162 1033.5368,100.35162 C 1034.4459,100.35162 1037.7678,101.5086 1040.9188,102.92269 C 1046.4487,105.40432 1046.7368,105.4364 1049.2027,103.8452 C 1051.8455,102.13977 1060.5191,97.89376 1066.9846,95.140438 C 1069.0207,94.273346 1074.6393,93.322745 1079.4703,93.027968 C 1089.1946,92.434629 1094.2307,93.653356 1099.8893,97.969375 C 1103.4322,100.6717 1105.7042,100.94758 1108.4688,99.01118 C 1109.5214,98.27393 1113.2312,96.956335 1116.7128,96.083183 C 1125.2599,93.939662 1136.1798,95.221749 1144.3035,99.32252 C 1150.2451,102.32184 1152.9499,105.54534 1155.3556,112.49398 C 1156.0611,114.53164 1157.1913,116.19883 1157.8673,116.19883 C 1158.5432,116.19883 1161.0929,113.31258 1163.5332,109.78495 C 1173.1248,95.91988 1193.5961,70.245347 1202.1442,61.360234 C 1212.4479,50.6503 1229.5305,47.284297 1243.1054,53.289129 C 1248.6818,55.755837 1255.9065,63.383557 1259.1586,70.237923 C 1261.5575,75.294026 1261.8397,76.973272 1261.9594,86.905511 C 1262.0859,97.403323 1261.953,98.21224 1259.2779,103.23293 C 1254.3665,112.45098 1250.7929,117.96875 1246.2148,123.4021 C 1243.7669,126.30742 1238.9945,132.35817 1235.6094,136.84821 C 1232.2245,141.33825 1227.5063,146.98418 1225.1246,149.39471 C 1222.7428,151.80524 1220.1898,154.92201 1219.4512,156.32085 C 1218.7125,157.7197 1215.363,161.69161 1212.0078,165.14732 C 1208.6526,168.60303 1205.9074,171.66813 1205.9074,171.95866 C 1205.9074,172.24919 1203.6274,175.38115 1200.8407,178.91858 C 1198.0539,182.456 1195.3022,186.43075 1194.7256,187.75135 C 1194.1491,189.07195 1192.1359,191.99569 1190.252,194.24855 C 1186.0036,199.32896 1184.0299,205.91288 1183.4112,217.06879 C 1182.8331,227.49186 1180.8916,233.33346 1174.0025,245.37754 C 1168.4656,255.05757 1159.2171,265.2191 1153.0192,268.4324 C 1151.135,269.40925 1149.0291,270.88837 1148.3395,271.71934 C 1147.6499,272.55031 1146.6504,273.2302 1146.1185,273.2302 C 1145.5866,273.2302 1141.2939,274.62625 1136.579,276.33253 L 1128.0065,279.43487 L 1128.5862,285.21657 C 1128.905,288.39651 1129.3333,303.53197 1129.5378,318.85093 C 1129.7425,334.16989 1130.1164,353.18654 1130.3689,361.11014 C 1131.2853,389.87243 1131.213,418.06277 1130.1895,431.13099 C 1129.6141,438.4763 1129.3724,444.85654 1129.6522,445.30931 C 1129.9329,445.76346 1103.0369,446.11547 1069.6589,446.09449 L 1009.1568,446.05645 L 1007.4966,441.70913 z"
           style="fill:#d08861" />
        <path
           id="path2457"
           d="M 1005.5797,449.96817 C 1004.6253,445.98953 1004.5386,441.80382 1005.2344,433.2965 C 1005.7454,427.04891 1006.1006,410.01225 1006.0236,395.43725 C 1005.6123,317.55139 1005.2711,288.26057 1004.7026,282.02467 L 1004.0723,275.1121 L 998.07227,273.41954 C 984.89667,269.70279 960.32997,254.1453 954.92507,246.09546 C 953.38957,243.80844 950.76947,240.27352 949.10267,238.24007 C 947.43597,236.20662 945.10247,233.26204 943.91727,231.69657 C 942.73197,230.13109 938.90692,227.12122 935.41722,225.00795 C 929.43282,221.38399 928.43502,221.11967 917.85942,220.35652 C 911.69232,219.9115 905.84232,219.14415 904.85942,218.6513 C 903.87642,218.15845 899.69722,217.20811 895.57222,216.53944 C 891.44722,215.87077 886.04722,214.67201 883.57222,213.87552 C 881.09722,213.07903 878.13692,212.42958 876.99372,212.4323 C 874.00812,212.43941 866.46712,207.10521 863.75572,203.06835 C 861.08052,199.08534 858.60132,190.56884 858.58412,185.30305 C 858.57672,183.03772 860.09202,178.63232 862.60712,173.60728 C 869.23452,160.36629 876.38072,155.53802 891.84532,153.85276 C 895.27012,153.47954 898.80632,152.79612 899.70352,152.33404 C 902.86832,150.70416 926.66232,153.61496 948.57227,158.3123 C 956.54727,160.02209 963.77557,161.42466 964.63507,161.42913 C 965.87347,161.43556 966.54427,158.94935 967.86657,149.45324 C 968.78437,142.86204 969.98457,136.67454 970.53357,135.70324 C 971.08257,134.73195 972.97577,129.66225 974.74077,124.43725 C 977.61617,115.9248 978.61207,114.24668 984.32187,108.29413 C 996.79847,95.287026 1008.1699,92.063186 1026.442,96.352966 C 1031.5365,97.549026 1037.7333,99.513156 1040.2127,100.7177 L 1044.7205,102.90778 L 1048.3964,100.65309 C 1050.4181,99.412996 1054.3223,97.323576 1057.0723,96.009936 C 1068.9109,90.354766 1070.6017,89.937246 1081.6647,89.937246 L 1092.3247,89.937246 L 1097.7717,93.687246 C 1103.1227,97.371176 1106.869,98.384226 1108.0535,96.467606 C 1108.3831,95.934296 1111.8972,94.528606 1115.8626,93.343846 C 1122.3973,91.391396 1123.8939,91.290276 1131.848,92.263746 C 1145.5389,93.939316 1154.516,99.960086 1156.2595,108.63613 C 1156.5578,110.12052 1157.6418,112.09513 1158.6683,113.02415 C 1160.9968,115.13137 1162.614,114.01119 1166.7343,107.43725 C 1168.2855,104.96225 1172.0513,99.787246 1175.1027,95.937246 C 1178.1541,92.087246 1183.1359,85.787246 1186.1734,81.937246 C 1209.9017,51.861701 1213.5081,48.687131 1227.2228,45.803091 C 1242.7071,42.546941 1257.1966,49.817131 1264.3566,64.435181 C 1266.8101,69.444271 1267.0508,70.967631 1267.0435,81.437246 C 1267.0356,92.785376 1266.9859,93.031906 1263.2777,100.10528 C 1258.2249,109.74329 1242.5927,130.49543 1230.6363,143.43725 C 1227.3335,147.01225 1223.4644,151.73725 1222.0383,153.93725 C 1220.6123,156.13725 1217.1115,160.22805 1214.2589,163.02792 C 1211.4063,165.82779 1207.4973,170.4882 1205.5723,173.38438 C 1203.6473,176.28057 1201.0598,179.58342 1199.8223,180.72405 C 1198.5848,181.86468 1197.5723,183.57419 1197.5723,184.52297 C 1197.5723,185.47175 1195.9374,188.2031 1193.9392,190.59264 C 1188.0683,197.61345 1185.8292,204.24817 1185.1762,216.55798 C 1184.5955,227.50682 1183.2725,232.37299 1178.7232,240.29348 C 1176.7152,243.78941 1174.0483,248.51441 1172.7967,250.79348 C 1170.3141,255.31438 1157.087,268.43725 1155.0129,268.43725 C 1154.305,268.43725 1152.3888,269.56225 1150.7547,270.93725 C 1149.1206,272.31225 1147.2799,273.43725 1146.6644,273.43725 C 1146.0488,273.43725 1144.7638,273.85129 1143.8087,274.35734 C 1142.2406,275.18825 1133.8682,278.34042 1129.2531,279.83745 C 1127.6259,280.36531 1127.5008,281.24543 1128.0669,288.1824 C 1128.415,292.44757 1128.9176,308.76225 1129.1839,324.43725 C 1129.4501,340.11225 1129.7914,356.53725 1129.9424,360.93725 C 1130.7846,385.48469 1130.6797,428.6705 1129.7506,439.93725 C 1129.0806,448.062 1129.0337,453.06226 1129.6254,453.27058 C 1130.1462,453.45392 1130.5723,454.03698 1130.5723,454.56627 C 1130.5723,455.11691 1127.6844,455.40212 1123.8223,455.23294 C 1118.3944,454.99517 1117.153,454.64345 1117.4841,453.43725 C 1118.4889,449.77691 1118.6577,408.60806 1117.6704,407.99786 C 1117.0987,407.64457 1115.2902,408.04891 1113.6513,408.89638 C 1110.2387,410.66109 1109.5723,410.77428 1109.5723,409.58912 C 1109.5723,409.12266 1111.3622,407.93385 1113.5499,406.94735 C 1115.7376,405.96084 1117.7966,404.306 1118.1254,403.26992 C 1118.8577,400.96274 1117.804,308.58555 1116.9384,299.20381 C 1116.5889,295.41587 1115.7168,291.97213 1114.9447,291.33137 C 1114.1899,290.70491 1113.5723,290.5509 1113.5723,290.98912 C 1113.5723,291.42734 1112.4473,290.729 1111.0723,289.43725 C 1109.6973,288.1455 1108.5723,286.40787 1108.5723,285.57584 C 1108.5723,284.51865 1109.4513,284.9052 1111.491,286.8594 C 1113.0963,288.39738 1114.8963,289.35501 1115.491,288.98747 C 1117.2743,287.88536 1116.7132,281.88609 1114.5723,279.16438 C 1110.4041,273.86542 1112.255,272.1463 1124.4132,270.02375 C 1132.9493,268.53354 1144.1608,263.51521 1150.9278,258.15571 C 1155.7239,254.35715 1166.1327,240.57676 1168.6908,234.63912 C 1171.5211,228.06959 1173.5736,219.2224 1175.0605,207.18255 C 1176.685,194.02976 1180.4263,185.70459 1187.9234,178.56014 C 1190.5914,176.01755 1194.1914,171.85026 1195.9234,169.2995 C 1199.8227,163.55659 1214.0138,145.57374 1222.1601,136.05254 C 1248.7029,105.03 1255.5698,93.961386 1255.7131,81.969326 C 1255.7798,76.383721 1253.4265,66.995081 1251.3151,64.423501 C 1247.1531,59.354191 1236.506,56.752151 1227.1563,58.519301 C 1222.6746,59.366371 1221.3045,60.397591 1211.6468,70.192851 C 1201.3551,80.631111 1185.442,99.785726 1178.6283,109.93725 C 1176.7825,112.68725 1174.4795,115.83725 1173.5105,116.93725 C 1172.5415,118.03725 1169.5453,122.53725 1166.8523,126.93725 C 1162.5934,133.89576 1156.9918,141.97588 1153.4699,146.24077 C 1150.965,149.2741 1150.0708,146.69364 1149.8711,135.85513 C 1149.5906,120.63004 1147.3262,111.30638 1142.9831,107.49305 C 1137.0327,102.26855 1124.8414,100.76895 1117.0592,104.30427 C 1110.1596,107.43864 1104.7082,116.50007 1104.6162,124.98725 C 1104.5707,129.18677 1103.2147,131.43725 1100.7298,131.43725 C 1099.5769,131.43725 1099.3974,130.28314 1099.8356,125.68725 C 1100.1372,122.52475 1100.0486,117.50969 1099.6388,114.54267 C 1099.0247,110.09632 1098.307,108.66917 1095.5553,106.4234 C 1089.7093,101.65211 1077.5718,100.09371 1068.2604,102.91886 C 1056.23,106.56899 1051.7015,111.47057 1048.2646,124.56176 C 1046.5822,130.96976 1045.6296,132.99716 1044.1691,133.27753 C 1042.394,133.61832 1042.3105,133.16431 1042.9273,126.52746 C 1043.8345,116.76691 1042.389,113.52146 1035.6361,110.15634 C 1032.7984,108.74225 1027.0993,106.78907 1022.9715,105.81593 C 1016.6406,104.32342 1014.5955,104.22926 1009.9002,105.21411 C 990.33487,109.31797 979.57227,130.8507 979.57227,165.89092 C 979.57227,173.25144 979.29917,179.98548 978.96527,180.85546 C 977.94807,183.50638 975.72327,182.63677 973.16837,178.58953 C 971.10667,175.32349 969.70637,174.41384 963.90587,172.57237 C 960.14737,171.37919 948.52227,168.78962 938.07222,166.81778 C 914.57312,162.38368 900.61612,161.98115 889.83722,165.42665 C 878.27942,169.1211 877.61042,169.51651 874.78402,174.3244 C 872.46932,178.26173 872.07222,180.06448 872.07222,186.63468 C 872.07222,194.67052 873.62682,198.54757 875.59852,195.42889 C 876.11722,194.60849 876.54852,192.7496 876.55692,191.29803 C 876.56532,189.84647 877.35972,187.7235 878.32222,186.58034 C 880.02742,184.5551 880.34242,184.53578 890.62012,185.82623 C 902.52752,187.32129 904.03542,187.92289 908.43512,192.93383 C 911.91452,196.89669 912.34742,200.03758 910.03132,204.51628 C 909.18392,206.15512 908.72562,207.87636 909.01292,208.34126 C 909.30022,208.80616 911.90612,209.44665 914.80372,209.76458 C 917.70142,210.08251 922.16522,210.64243 924.72342,211.00885 C 928.82512,211.59637 929.51032,211.42143 930.52362,209.52816 C 931.85122,207.04737 933.92922,207.73717 933.09032,210.38022 C 932.43332,212.45012 933.97412,213.89925 937.80462,214.81399 C 939.90642,215.31592 940.82737,215.00157 941.79517,213.45188 C 943.67967,210.43444 945.63197,210.88894 944.97147,214.19131 C 944.49217,216.5877 945.01867,217.36693 949.02567,220.19131 C 954.31157,223.91712 955.33397,224.10399 957.21077,221.68725 C 958.40267,220.15247 958.50027,220.42918 958.00467,223.93725 C 957.54537,227.18857 958.02397,229.00673 960.56147,233.65118 C 964.50647,240.87158 970.17817,245.86316 980.18747,250.92376 C 984.52407,253.11634 988.74727,255.41592 989.57227,256.03394 C 990.39727,256.65196 994.89727,258.59747 999.57227,260.35729 C 1009.546,264.11171 1016.28,268.19799 1019.3611,272.36549 C 1022.0875,276.05306 1022.1229,277.07221 1019.5723,278.43725 C 1017.7979,279.38688 1017.5723,280.53107 1017.5723,288.58084 L 1017.5723,297.65407 L 1020.0723,297.02661 C 1021.4473,296.6815 1022.5723,296.68026 1022.5723,297.02384 C 1022.5723,297.36742 1021.4473,298.98552 1020.0723,300.61962 C 1018.3027,302.72272 1017.5612,304.80989 1017.5342,307.76398 C 1017.5133,310.05928 1017.604,326.78725 1017.7357,344.93725 C 1018.2349,413.70519 1018.246,444.10933 1017.7738,449.23523 C 1017.2998,454.38005 1017.2081,454.51617 1014.6027,453.94393 C 1013.1271,453.61983 1010.78,453.78799 1009.387,454.31762 C 1006.9479,455.24494 1006.807,455.0839 1005.5797,449.96817 z M 906.52082,206.26205 C 909.21282,203.37249 910.17462,197.93131 908.53482,194.86743 C 906.67722,191.39636 900.10512,188.58547 890.61212,187.20186 C 882.47732,186.0162 882.31722,186.03396 880.45962,188.32801 C 879.13382,189.96529 878.57222,192.25552 878.57222,196.02498 C 878.57222,202.7799 879.71592,203.62002 892.57222,206.30857 C 904.62642,208.8294 904.12742,208.83106 906.52082,206.26205 z M 1040.0857,451.81513 C 1038.375,447.72068 1038.2085,446.43725 1039.3882,446.43725 C 1040.5703,446.43725 1044.655,454.02123 1043.8866,454.78959 C 1042.5568,456.11942 1041.5574,455.3373 1040.0857,451.81513 z M 1096.2911,452.29548 C 1095.3114,450.57447 1094.7872,448.88981 1095.1262,448.55181 C 1096.0082,447.67219 1100.7164,453.39507 1100.0276,454.50962 C 1099.0531,456.08631 1098.1414,455.54607 1096.2911,452.29548 z M 1070.5723,445.34154 C 1070.5723,443.79526 1073.8438,438.43725 1074.7879,438.43725 C 1075.9914,438.43725 1075.7272,440.23704 1074.0466,443.48691 C 1072.5362,446.40779 1070.5723,447.45613 1070.5723,445.34154 z M 1027.1905,436.36802 C 1026.1933,434.67994 1025.6771,432.99916 1026.0433,432.63296 C 1026.8327,431.84348 1030.518,436.3853 1030.5501,438.18725 C 1030.5888,440.36726 1029.0657,439.54245 1027.1905,436.36802 z M 1052.0723,436.02192 C 1050.4223,434.69895 1049.3839,433.30209 1049.7647,432.91779 C 1050.577,432.09809 1056.5723,436.13823 1056.5723,437.50534 C 1056.5723,439.01388 1055.2673,438.58369 1052.0723,436.02192 z M 1089.5313,432.37967 C 1086.9054,428.69191 1087.9047,426.92019 1090.6185,430.45219 C 1092.3652,432.72555 1093.1931,435.43725 1092.1404,435.43725 C 1091.9028,435.43725 1090.7287,434.06134 1089.5313,432.37967 z M 1106.5613,427.18725 C 1104.3339,423.53393 1104.1089,422.43725 1105.587,422.43725 C 1106.5856,422.43725 1110.5613,428.22332 1110.5686,429.68725 C 1110.5777,431.53022 1108.3692,430.15237 1106.5613,427.18725 z M 1040.5723,425.08018 C 1040.5723,423.46823 1045.3451,418.87668 1046.1666,419.69825 C 1046.8966,420.42821 1043.5703,425.14862 1041.8223,425.86337 C 1041.1348,426.14448 1040.5723,425.79204 1040.5723,425.08018 z M 1072.1949,419.44312 C 1070.3156,416.6034 1069.7269,414.88267 1070.4031,414.20646 C 1071.0793,413.53024 1072.1133,414.5773 1073.5497,417.39297 C 1076.5113,423.19827 1075.5963,424.58298 1072.1949,419.44312 z M 1055.7677,413.04387 C 1053.2876,408.84038 1053.1807,408.43725 1054.5466,408.43725 C 1055.7896,408.43725 1058.8123,414.21718 1058.3284,415.66882 C 1058.1275,416.27161 1056.9752,415.09038 1055.7677,413.04387 z M 1089.7561,414.38598 C 1090.2653,412.8583 1096.5723,409.0507 1096.5723,410.27095 C 1096.5723,411.29791 1091.3742,415.43725 1090.0846,415.43725 C 1089.7112,415.43725 1089.5633,414.96418 1089.7561,414.38598 z M 1025.6449,411.80239 C 1022.5457,407.86241 1023.1462,406.6548 1026.5723,409.93725 C 1028.2223,411.51805 1029.5723,413.17724 1029.5723,413.62434 C 1029.5723,415.25655 1027.6665,414.37242 1025.6449,411.80239 z M 1039.1524,404.15604 C 1038.1343,402.62638 1037.5981,401.07816 1037.9606,400.71557 C 1039.0653,399.61096 1041.7899,403.07601 1041.3839,405.06905 C 1041.0531,406.69283 1040.7612,406.57338 1039.1524,404.15604 z M 1064.5723,401.61156 C 1064.5723,400.25679 1069.5084,396.03997 1070.239,396.77058 C 1070.61,397.14159 1069.8583,398.56836 1068.5686,399.94119 C 1066.2068,402.4552 1064.5723,403.13839 1064.5723,401.61156 z M 1092.6714,397.04275 C 1091.3632,395.65019 1090.8398,394.38996 1091.4206,394.03099 C 1091.9699,393.6915 1093.3844,394.76903 1094.5639,396.42549 C 1097.1218,400.01777 1095.8546,400.43109 1092.6714,397.04275 z M 1050.2078,390.00364 C 1047.8702,386.43608 1048.1865,385.67702 1050.6863,388.85505 C 1051.849,390.33319 1052.585,391.75792 1052.3218,392.02112 C 1052.0586,392.28432 1051.1073,391.37646 1050.2078,390.00364 z M 1106.187,384.99874 C 1104.7445,383.10755 1103.9801,381.30326 1104.4882,380.98921 C 1105.5778,380.31583 1109.5723,385.09512 1109.5723,387.07211 C 1109.5723,389.09252 1109.0791,388.79043 1106.187,384.99874 z M 1077.5876,386.18725 C 1077.6081,384.51429 1079.3316,381.86319 1079.9783,382.50988 C 1080.7531,383.28469 1079.4699,387.43725 1078.4557,387.43725 C 1077.9698,387.43725 1077.5792,386.87475 1077.5876,386.18725 z M 1031.0723,382.43725 C 1032.0678,381.33725 1033.5573,380.43725 1034.3823,380.43725 C 1035.6123,380.43725 1035.5565,380.79724 1034.0723,382.43725 C 1033.0768,383.53725 1031.5873,384.43725 1030.7623,384.43725 C 1029.5323,384.43725 1029.5881,384.07726 1031.0723,382.43725 z M 1059.5723,379.9843 C 1059.5723,378.70847 1062.0059,374.43725 1062.7328,374.43725 C 1063.7982,374.43725 1063.786,374.74487 1062.5971,377.87215 C 1061.7878,380.0006 1059.5723,381.54767 1059.5723,379.9843 z M 1091.3223,375.86528 C 1089.8098,375.04473 1088.5723,373.93775 1088.5723,373.40531 C 1088.5723,371.84759 1089.8681,372.27978 1093.0723,374.90625 C 1096.4217,377.6517 1095.523,378.14419 1091.3223,375.86528 z M 1045.5313,367.37967 C 1042.9054,363.69191 1043.9047,361.92019 1046.6185,365.45219 C 1048.3652,367.72555 1049.1931,370.43725 1048.1404,370.43725 C 1047.9028,370.43725 1046.7287,369.06134 1045.5313,367.37967 z M 1106.5723,369.55226 C 1106.5723,368.45278 1111.0711,365.43725 1112.7114,365.43725 C 1113.3767,365.43725 1112.864,366.56225 1111.5723,367.93725 C 1109.2533,370.40574 1106.5723,371.2717 1106.5723,369.55226 z M 1074.5275,365.82594 C 1073.9221,364.23716 1073.2022,361.58725 1072.9278,359.93725 C 1072.4536,357.08668 1072.5064,357.03307 1073.9878,358.86098 C 1075.6798,360.94877 1077.1782,367.16473 1076.2203,368.12257 C 1075.8947,368.4482 1075.1329,367.41472 1074.5275,365.82594 z M 1028.2618,359.27452 C 1025.6262,355.8191 1024.8316,353.4305 1026.3223,353.44408 C 1027.5781,353.45552 1031.7968,360.26383 1031.36,361.57417 C 1031.1253,362.27824 1029.8058,361.29882 1028.2618,359.27452 z M 1097.251,352.90119 C 1095.6992,350.95644 1094.6015,348.84974 1094.8115,348.21961 C 1095.0215,347.58949 1096.446,348.71617 1097.9769,350.72334 C 1101.6099,355.48645 1100.9333,357.51619 1097.251,352.90119 z M 1052.5723,353.6778 C 1052.5723,352.58428 1056.6573,350.18897 1057.3467,350.87829 C 1057.6655,351.19709 1057.0592,352.11395 1055.9993,352.91578 C 1053.8529,354.53965 1052.5723,354.82439 1052.5723,353.6778 z M 1082.239,349.77058 C 1081.177,348.70863 1081.4679,341.43725 1082.5723,341.43725 C 1083.1223,341.43725 1083.5723,342.056 1083.5723,342.81225 C 1083.5723,343.5685 1083.8536,345.5935 1084.1973,347.31225 C 1084.7771,350.21106 1083.847,351.3786 1082.239,349.77058 z M 1035.5723,344.40513 C 1035.5723,343.28747 1036.3313,340.69997 1037.2589,338.65513 C 1038.9195,334.99469 1038.9513,334.97871 1039.3189,337.62085 C 1039.6515,340.01108 1037.2664,346.43725 1036.0466,346.43725 C 1035.7857,346.43725 1035.5723,345.5228 1035.5723,344.40513 z M 1107.7695,342.96081 C 1105.2529,339.76149 1104.9993,338.43725 1106.9033,338.43725 C 1108.5056,338.43725 1110.9739,342.73246 1110.3857,344.49706 C 1110.122,345.28818 1109.1523,344.71877 1107.7695,342.96081 z M 1066.1339,339.55881 C 1064.3968,336.13074 1063.9575,334.4398 1064.8054,334.44495 C 1066.7146,334.45656 1070.9821,342.42741 1069.7428,343.6668 C 1069.058,344.35155 1067.8872,343.01888 1066.1339,339.55881 z M 1049.5946,332.23356 C 1048.5231,330.47153 1047.895,328.78403 1048.199,328.48356 C 1048.7864,327.90287 1053.5589,333.41806 1053.5673,334.68725 C 1053.5795,336.52167 1051.374,335.15947 1049.5946,332.23356 z M 1089.5723,332.11156 C 1089.5723,330.38251 1094.1232,326.11845 1095.4759,326.58009 C 1096.6449,326.97904 1091.9583,333.43725 1090.4998,333.43725 C 1089.9897,333.43725 1089.5723,332.84069 1089.5723,332.11156 z M 1026.5723,327.61156 C 1026.5723,326.64019 1030.8891,322.43725 1031.8868,322.43725 C 1033.3431,322.43725 1032.4695,324.70239 1030.3223,326.49369 C 1027.8872,328.52516 1026.5723,328.91712 1026.5723,327.61156 z M 1071.5502,322.87025 C 1070.3442,319.21602 1070.8499,317.31481 1072.5702,319.03517 C 1073.1007,319.56569 1073.8245,321.44819 1074.1786,323.2185 C 1075.0657,327.65439 1073.0405,327.38606 1071.5502,322.87025 z M 1102.8223,318.94638 C 1098.6834,317.14746 1098.4718,315.26124 1102.5397,316.42791 C 1106.2566,317.49388 1107.5723,318.29609 1107.5723,319.49627 C 1107.5723,320.73839 1106.7176,320.63945 1102.8223,318.94638 z M 1039.1793,315.85546 C 1038.2029,313.31095 1038.4506,307.91192 1039.4945,308.98725 C 1040.8977,310.43276 1041.9721,317.43725 1040.7906,317.43725 C 1040.2382,317.43725 1039.5131,316.72545 1039.1793,315.85546 z M 1083.6701,314.28803 C 1082.3575,310.52266 1082.2662,308.43725 1083.414,308.43725 C 1084.1313,308.43725 1086.5723,314.90315 1086.5723,316.80327 C 1086.5723,318.69505 1084.6151,316.9988 1083.6701,314.28803 z M 1054.9377,314.0736 C 1051.2038,310.85986 1052.2502,309.80631 1056.1114,312.89187 C 1057.7399,314.19323 1058.7867,315.54639 1058.4377,315.8989 C 1058.0886,316.2514 1056.5136,315.43002 1054.9377,314.0736 z M 1030.1074,307.85049 C 1028.1196,304.81678 1029.0693,303.02887 1031.1541,305.87995 C 1032.4619,307.66853 1033.0896,310.43725 1032.1873,310.43725 C 1031.9756,310.43725 1031.0396,309.27321 1030.1074,307.85049 z M 1065.5723,302.93725 C 1065.5723,301.93725 1066.5723,301.43725 1068.5723,301.43725 C 1072.0902,301.43725 1072.5652,302.9379 1069.3223,303.80696 C 1066.0133,304.69375 1065.5723,304.59148 1065.5723,302.93725 z M 1096.0904,301.46662 C 1095.4326,300.40225 1097.9569,294.93562 1099.5652,293.94165 C 1101.0718,293.0105 1100.7795,296.13581 1099.0466,299.48691 C 1097.3927,302.68526 1097.0043,302.94533 1096.0904,301.46662 z M 1046.0723,296.43725 C 1047.0678,295.33725 1048.5573,294.43725 1049.3823,294.43725 C 1050.6123,294.43725 1050.5565,294.79724 1049.0723,296.43725 C 1048.0768,297.53725 1046.5873,298.43725 1045.7623,298.43725 C 1044.5323,298.43725 1044.5881,298.07726 1046.0723,296.43725 z M 1082.1022,294.48562 C 1081.7787,293.96222 1082.864,292.04972 1084.5139,290.23562 C 1087.8006,286.62171 1088.5705,287.93882 1085.8567,292.53296 C 1084.0614,295.57209 1083.0869,296.07892 1082.1022,294.48562 z M 1060.1017,288.494 C 1059.1956,286.74197 1058.9656,285.31218 1059.5334,284.9613 C 1060.3401,284.46273 1063.5723,289.20533 1063.5723,290.88759 C 1063.5723,292.52622 1061.4188,291.04099 1060.1017,288.494 z M 1040.5723,285.99627 C 1040.5723,284.65373 1041.0223,283.27717 1041.5723,282.93725 C 1042.1557,282.57667 1042.5723,283.59353 1042.5723,285.37823 C 1042.5723,287.06069 1042.1223,288.43725 1041.5723,288.43725 C 1041.0223,288.43725 1040.5723,287.33881 1040.5723,285.99627 z M 1073.2911,283.29548 C 1072.3114,281.57447 1071.7876,279.88981 1072.1272,279.55181 C 1072.9333,278.74926 1076.5723,283.24873 1076.5723,285.04803 C 1076.5723,287.35391 1075.1771,286.60871 1073.2911,283.29548 z M 1094.2144,281.20795 C 1092.0807,275.77613 1093.8288,273.41362 1096.0493,278.72808 C 1097.7925,282.90007 1097.9229,284.10255 1096.713,284.85029 C 1096.2404,285.14237 1095.116,283.50332 1094.2144,281.20795 z M 1049.5723,273.00235 C 1049.5723,270.77621 1051.5579,266.08947 1052.2203,266.75193 C 1053.1165,267.64811 1051.6206,274.43725 1050.527,274.43725 C 1050.0019,274.43725 1049.5723,273.79154 1049.5723,273.00235 z M 1081.5723,271.84154 C 1081.5723,270.67207 1085.0181,265.43725 1085.7879,265.43725 C 1086.9046,265.43725 1086.7752,266.14429 1085.0466,269.48691 C 1083.709,272.07359 1081.5723,273.52168 1081.5723,271.84154 z M 1093.1404,228.54746 C 1092.7787,227.96222 1092.9185,225.78551 1093.4509,223.71032 C 1096.7142,210.99261 1097.1816,194.38388 1094.5365,185.13395 C 1092.043,176.41426 1084.3726,172.41983 1076.7352,175.8638 C 1072.3058,177.86118 1065.5588,185.35313 1062.4771,191.69632 L 1060.298,196.18164 L 1063.0084,204.03056 C 1067.8923,218.17307 1067.4707,225.92091 1061.8539,225.24718 C 1057.2079,224.68989 1055.0636,220.33891 1055.1363,211.61634 C 1055.1715,207.39284 1055.5401,201.46225 1055.9555,198.43725 C 1056.6719,193.21975 1056.5361,192.6965 1053.3113,188.25008 C 1043.2244,174.34187 1031.0393,171.39561 1024.1629,181.20225 C 1021.4136,185.12316 1021.1766,186.13163 1021.2261,193.70225 C 1021.2885,203.24646 1023.194,208.88239 1030.1419,220.07327 C 1032.5786,223.99808 1034.5723,227.54068 1034.5723,227.94572 C 1034.5723,230.65059 1027.2131,219.64093 1021.6119,208.55656 C 1018.9365,203.26189 1017.8483,191.7484 1019.462,185.8094 C 1020.2093,183.05895 1022.0758,180.30605 1025.0556,177.5594 C 1028.8603,174.05233 1030.1651,173.44145 1033.8,173.46537 C 1040.241,173.50775 1049.0934,178.70184 1053.3517,184.93725 C 1055.2298,187.68725 1057.324,189.93725 1058.0055,189.93725 C 1058.6871,189.93725 1061.8294,186.89053 1064.9885,183.16676 C 1074.0551,172.47961 1082.2883,169.62647 1090.1107,174.46096 C 1098.9769,179.94057 1101.4113,198.49433 1096.4057,222.43725 C 1095.1633,228.37989 1094.1772,230.22506 1093.1404,228.54746 z M 1064.0526,220.4994 C 1064.8811,217.88901 1060.7237,204.43725 1059.0884,204.43725 C 1057.3274,204.43725 1056.3085,212.11881 1057.5171,216.28417 C 1059.2375,222.21304 1062.7829,224.49979 1064.0526,220.4994 z M 1183.0729,147.82687 C 1179.4357,144.74117 1176.6973,141.97893 1176.9876,141.68858 C 1177.278,141.39823 1180.3408,143.48048 1183.7939,146.31582 C 1187.247,149.15115 1190.7473,151.34628 1191.5723,151.19389 C 1194.6767,150.62047 1193.8038,146.4229 1189.3993,140.74407 C 1178.6605,126.89816 1179.501,124.65971 1190.937,136.64908 C 1199.3331,145.45146 1203.2915,147.7451 1206.0853,145.42647 C 1206.9031,144.74771 1207.5723,142.67376 1207.5723,140.81769 C 1207.5723,136.62465 1202.9533,131.22916 1195.6894,126.93725 C 1191.1616,124.26199 1189.002,121.43725 1191.4844,121.43725 C 1193.7562,121.43725 1203.9138,130.4532 1207.074,135.27453 C 1212.8608,144.10327 1211.174,147.91971 1201.7756,147.26233 C 1197.785,146.98321 1197.0735,147.22 1196.7425,148.93725 C 1195.5352,155.20214 1191.3674,154.86359 1183.0729,147.82687 z M 1221.9048,107.61897 C 1215.1782,105.25176 1209.7122,101.01628 1207.9543,96.809126 C 1206.6896,93.782266 1206.7588,92.820506 1208.6439,87.224816 C 1210.748,80.978881 1220.6197,65.740031 1223.2042,64.748281 C 1227.1816,63.222011 1251.5723,82.265216 1251.5723,86.896866 C 1251.5723,89.201706 1245.4712,99.234386 1241.6723,103.17657 C 1236.409,108.63825 1229.3249,110.23028 1221.9048,107.61897 z M 1235.6989,104.68066 C 1238.8602,102.58233 1244.7176,95.400306 1247.6386,90.040996 L 1249.7622,86.144756 L 1242.873,79.541001 C 1235.436,72.412021 1226.7371,67.053071 1224.1891,68.030801 C 1222.0776,68.841061 1213.9595,80.307721 1211.3985,86.097286 C 1209.2228,91.015696 1209.3735,96.273356 1211.7739,99.197266 C 1212.488,100.06713 1215.0729,102.05198 1217.5181,103.60804 C 1222.9113,107.0402 1231.3904,107.54044 1235.6989,104.68066 z"
           style="fill:#000000" />
      </g>
    </g>
    <rect
       style="fill:url(#pattern5564);stroke:none"
       width="1280"
       height="661"
       x="1511.6805"
       y="-307.29764"
       id="rect5567" />
  </g>
</svg>
